<svg xmlns="http://www.w3.org/2000/svg" xmlns:xlink="http://www.w3.org/1999/xlink" width="1080" zoomAndPan="magnify" viewBox="0 0 810 809.999993" height="1080" preserveAspectRatio="xMidYMid meet" version="1.0"><defs><clipPath id="a8d6ad6f1a"><path d="M 568 567 L 804.75 567 L 804.75 631 L 568 631 Z M 568 567 " clip-rule="nonzero"/></clipPath><clipPath id="90650bccfc"><path d="M 568 660 L 804.75 660 L 804.75 723 L 568 723 Z M 568 660 " clip-rule="nonzero"/></clipPath><clipPath id="903c006d78"><path d="M 568 751 L 804.75 751 L 804.75 810 L 568 810 Z M 568 751 " clip-rule="nonzero"/></clipPath></defs><rect x="-81" width="972" fill="#ffffff" y="-80.999999" height="971.999992" fill-opacity="1"/><rect x="-81" width="972" fill="#ffffff" y="-80.999999" height="971.999992" fill-opacity="1"/><path fill="#3a3b53" d="M 350.417969 450.722656 C 350.417969 440.667969 352.832031 431.414062 357.257812 422.964844 L 136.789062 422.964844 C 104.199219 422.964844 80.464844 452.332031 80.464844 483.714844 L 80.464844 521.53125 C 80.464844 527.164062 84.890625 531.992188 90.519531 531.992188 L 120.695312 531.992188 C 126.328125 531.992188 131.15625 527.164062 131.15625 521.53125 L 131.15625 483.714844 C 131.15625 476.070312 134.375 473.65625 142.019531 473.65625 L 354.84375 473.65625 C 352.027344 466.414062 350.417969 458.769531 350.417969 450.722656 Z M 350.417969 450.722656 " fill-opacity="1" fill-rule="evenodd"/><path fill="#3a3b53" d="M 689.167969 422.964844 L 468.699219 422.964844 C 472.722656 431.414062 475.539062 440.667969 475.539062 450.722656 C 475.539062 458.769531 473.929688 466.414062 471.113281 473.65625 L 684.339844 473.65625 C 692.386719 473.65625 694.800781 478.082031 694.800781 483.714844 L 694.800781 521.53125 C 694.800781 527.164062 699.226562 531.992188 704.859375 531.992188 L 735.433594 531.992188 C 740.664062 531.992188 745.492188 527.164062 745.492188 521.53125 L 745.492188 483.714844 C 745.492188 452.332031 721.753906 422.964844 689.167969 422.964844 Z M 689.167969 422.964844 " fill-opacity="1" fill-rule="evenodd"/><path fill="#1f3660" d="M 578.128906 154.621094 C 558.414062 72.546875 484.792969 11.796875 396.683594 11.796875 C 295.300781 11.796875 212.824219 92.664062 210.007812 193.644531 C 56.324219 193.644531 65.175781 391.988281 204.777344 391.988281 L 343.175781 391.988281 C 348.003906 391.988281 351.625 388.367188 352.027344 383.539062 C 352.027344 367.847656 363.695312 334.054688 403.925781 332.847656 L 422.03125 332.847656 C 461.054688 332.847656 472.320312 365.433594 473.527344 381.527344 C 474.332031 387.5625 479.160156 391.988281 485.195312 391.988281 L 608.300781 391.988281 C 783.308594 391.988281 761.988281 132.089844 578.128906 154.621094 Z M 578.128906 154.621094 " fill-opacity="1" fill-rule="nonzero"/><path fill="#1f3660" d="M 234.953125 567.796875 L 11.667969 567.796875 C 5.230469 567.796875 0 573.027344 0 579.464844 L 0 618.894531 C 0 624.925781 5.230469 630.15625 11.667969 630.15625 L 234.953125 630.15625 C 241.390625 630.15625 246.621094 624.925781 246.621094 618.894531 L 246.621094 579.464844 C 246.621094 573.027344 241.390625 567.796875 234.953125 567.796875 Z M 159.71875 583.488281 L 159.71875 616.882812 C 159.71875 618.894531 161.328125 620.90625 163.339844 620.90625 L 173.398438 620.90625 C 175.410156 620.90625 177.019531 618.894531 177.019531 616.882812 L 177.019531 583.488281 C 177.019531 581.476562 175.410156 579.867188 173.398438 579.867188 L 163.339844 579.867188 C 161.328125 579.867188 159.71875 581.476562 159.71875 583.488281 Z M 51.09375 610.042969 C 51.09375 612.054688 49.082031 614.066406 46.667969 614.066406 L 25.75 614.066406 C 23.335938 614.066406 21.324219 612.054688 21.324219 610.042969 L 21.324219 588.316406 C 21.324219 585.902344 23.335938 583.890625 25.75 583.890625 L 46.667969 583.890625 C 49.082031 583.890625 51.09375 585.902344 51.09375 588.316406 Z M 187.480469 583.488281 L 187.480469 616.882812 C 187.480469 618.894531 189.089844 620.90625 191.101562 620.90625 L 201.15625 620.90625 C 203.167969 620.90625 204.777344 618.894531 204.777344 616.882812 L 204.777344 583.488281 C 204.777344 581.476562 203.167969 579.867188 201.15625 579.867188 L 191.101562 579.867188 C 189.089844 579.867188 187.480469 581.476562 187.480469 583.488281 Z M 214.433594 583.488281 L 214.433594 616.882812 C 214.433594 618.894531 216.042969 620.90625 218.054688 620.90625 L 227.710938 620.90625 C 230.125 620.90625 231.734375 618.894531 231.734375 616.882812 L 231.734375 583.488281 C 231.734375 581.476562 230.125 579.867188 227.710938 579.867188 L 218.054688 579.867188 C 216.042969 579.867188 214.433594 581.476562 214.433594 583.488281 Z M 214.433594 583.488281 " fill-opacity="1" fill-rule="evenodd"/><path fill="#3a3b53" d="M 230.125 650.675781 C 230.929688 650.675781 231.734375 650.273438 231.734375 649.46875 L 231.734375 641.019531 C 231.734375 640.214844 230.929688 639.410156 230.125 639.410156 L 18.507812 639.410156 C 17.703125 639.410156 16.898438 640.214844 16.898438 641.019531 L 16.898438 649.46875 C 16.898438 650.273438 17.703125 650.675781 18.507812 650.675781 Z M 230.125 650.675781 " fill-opacity="1" fill-rule="evenodd"/><path fill="#3a3b53" d="M 230.125 742.804688 C 230.929688 742.804688 231.734375 742 231.734375 741.195312 L 231.734375 732.75 C 231.734375 731.945312 230.929688 731.542969 230.125 731.542969 L 18.507812 731.542969 C 17.703125 731.542969 16.898438 731.945312 16.898438 732.75 L 16.898438 741.195312 C 16.898438 742 17.703125 742.804688 18.507812 742.804688 Z M 230.125 742.804688 " fill-opacity="1" fill-rule="evenodd"/><path fill="#1f3660" d="M 234.953125 660.332031 L 11.667969 660.332031 C 5.230469 660.332031 0 665.5625 0 672 L 0 711.425781 C 0 717.460938 5.230469 722.691406 11.667969 722.691406 L 234.953125 722.691406 C 241.390625 722.691406 246.621094 717.460938 246.621094 711.425781 L 246.621094 672 C 246.621094 665.5625 241.390625 660.332031 234.953125 660.332031 Z M 159.71875 672.402344 L 159.71875 711.023438 C 159.71875 713.035156 161.328125 714.644531 163.339844 714.644531 L 173.398438 714.644531 C 175.410156 714.644531 177.019531 713.035156 177.019531 711.023438 L 177.019531 672.402344 C 177.019531 670.390625 175.410156 668.78125 173.398438 668.78125 L 163.339844 668.78125 C 161.328125 668.78125 159.71875 670.390625 159.71875 672.402344 Z M 51.09375 702.574219 C 51.09375 704.585938 49.082031 706.597656 46.667969 706.597656 L 25.75 706.597656 C 23.335938 706.597656 21.324219 704.585938 21.324219 702.574219 L 21.324219 680.847656 C 21.324219 678.4375 23.335938 676.425781 25.75 676.425781 L 46.667969 676.425781 C 49.082031 676.425781 51.09375 678.4375 51.09375 680.847656 Z M 187.480469 672.402344 L 187.480469 711.023438 C 187.480469 713.035156 189.089844 714.644531 191.101562 714.644531 L 201.15625 714.644531 C 203.167969 714.644531 204.777344 713.035156 204.777344 711.023438 L 204.777344 672.402344 C 204.777344 670.390625 203.167969 668.78125 201.15625 668.78125 L 191.101562 668.78125 C 189.089844 668.78125 187.480469 670.390625 187.480469 672.402344 Z M 214.433594 672.402344 L 214.433594 711.023438 C 214.433594 713.035156 216.042969 714.644531 218.054688 714.644531 L 227.710938 714.644531 C 230.125 714.644531 231.734375 713.035156 231.734375 711.023438 L 231.734375 672.402344 C 231.734375 670.390625 230.125 668.78125 227.710938 668.78125 L 218.054688 668.78125 C 216.042969 668.78125 214.433594 670.390625 214.433594 672.402344 Z M 214.433594 672.402344 " fill-opacity="1" fill-rule="evenodd"/><path fill="#1f3660" d="M 234.953125 751.65625 L 11.667969 751.65625 C 5.230469 751.65625 0 756.886719 0 763.324219 L 0 802.75 C 0 808.785156 5.230469 814.015625 11.667969 814.015625 L 234.953125 814.015625 C 241.390625 814.015625 246.621094 808.785156 246.621094 802.75 L 246.621094 763.324219 C 246.621094 756.886719 241.390625 751.65625 234.953125 751.65625 Z M 51.09375 793.902344 C 51.09375 796.3125 49.082031 797.921875 46.667969 797.921875 L 25.75 797.921875 C 23.335938 797.921875 21.324219 796.3125 21.324219 793.902344 L 21.324219 772.175781 C 21.324219 769.761719 23.335938 767.75 25.75 767.75 L 46.667969 767.75 C 49.082031 767.75 51.09375 769.761719 51.09375 772.175781 Z M 187.480469 764.933594 L 187.480469 803.554688 C 187.480469 805.566406 189.089844 807.175781 191.101562 807.175781 L 201.15625 807.175781 C 203.167969 807.175781 204.777344 805.566406 204.777344 803.554688 L 204.777344 764.933594 C 204.777344 762.921875 203.167969 761.3125 201.15625 761.3125 L 191.101562 761.3125 C 189.089844 761.3125 187.480469 762.921875 187.480469 764.933594 Z M 159.71875 764.933594 L 159.71875 803.554688 C 159.71875 805.566406 161.328125 807.175781 163.339844 807.175781 L 173.398438 807.175781 C 175.410156 807.175781 177.019531 805.566406 177.019531 803.554688 L 177.019531 764.933594 C 177.019531 762.921875 175.410156 761.3125 173.398438 761.3125 L 163.339844 761.3125 C 161.328125 761.3125 159.71875 762.921875 159.71875 764.933594 Z M 214.433594 764.933594 L 214.433594 803.554688 C 214.433594 805.566406 216.042969 807.175781 218.054688 807.175781 L 227.710938 807.175781 C 230.125 807.175781 231.734375 805.566406 231.734375 803.554688 L 231.734375 764.933594 C 231.734375 762.921875 230.125 761.3125 227.710938 761.3125 L 218.054688 761.3125 C 216.042969 761.3125 214.433594 762.921875 214.433594 764.933594 Z M 214.433594 764.933594 " fill-opacity="1" fill-rule="evenodd"/><path fill="#1f3660" d="M 518.988281 567.796875 L 296.105469 567.796875 C 289.667969 567.796875 284.035156 573.027344 284.035156 579.464844 L 284.035156 618.894531 C 284.035156 624.925781 289.667969 630.15625 296.105469 630.15625 L 518.988281 630.15625 C 525.425781 630.15625 531.058594 624.925781 531.058594 618.894531 L 531.058594 579.464844 C 531.058594 573.027344 525.425781 567.796875 518.988281 567.796875 Z M 443.753906 583.488281 L 443.753906 616.882812 C 443.753906 618.894531 445.363281 620.90625 447.375 620.90625 L 457.433594 620.90625 C 459.445312 620.90625 461.054688 618.894531 461.054688 616.882812 L 461.054688 583.488281 C 461.054688 581.476562 459.445312 579.867188 457.433594 579.867188 L 447.375 579.867188 C 445.363281 579.867188 443.753906 581.476562 443.753906 583.488281 Z M 335.128906 610.042969 C 335.128906 612.054688 333.117188 614.066406 330.703125 614.066406 L 310.1875 614.066406 C 307.773438 614.066406 305.761719 612.054688 305.761719 610.042969 L 305.761719 588.316406 C 305.761719 585.902344 307.773438 583.890625 310.1875 583.890625 L 330.703125 583.890625 C 333.117188 583.890625 335.128906 585.902344 335.128906 588.316406 Z M 471.917969 583.488281 L 471.917969 616.882812 C 471.917969 618.894531 473.527344 620.90625 475.539062 620.90625 L 485.195312 620.90625 C 487.207031 620.90625 488.8125 618.894531 488.8125 616.882812 L 488.8125 583.488281 C 488.8125 581.476562 487.207031 579.867188 485.195312 579.867188 L 475.539062 579.867188 C 473.527344 579.867188 471.917969 581.476562 471.917969 583.488281 Z M 498.46875 583.488281 L 498.46875 616.882812 C 498.46875 618.894531 500.078125 620.90625 502.089844 620.90625 L 512.148438 620.90625 C 514.160156 620.90625 515.769531 618.894531 515.769531 616.882812 L 515.769531 583.488281 C 515.769531 581.476562 514.160156 579.867188 512.148438 579.867188 L 502.089844 579.867188 C 500.078125 579.867188 498.46875 581.476562 498.46875 583.488281 Z M 498.46875 583.488281 " fill-opacity="1" fill-rule="evenodd"/><path fill="#3a3b53" d="M 514.160156 650.675781 C 514.964844 650.675781 515.769531 650.273438 515.769531 649.46875 L 515.769531 641.019531 C 515.769531 640.214844 514.964844 639.410156 514.160156 639.410156 L 302.542969 639.410156 C 301.738281 639.410156 300.933594 640.214844 300.933594 641.019531 L 300.933594 649.46875 C 300.933594 650.273438 301.738281 650.675781 302.542969 650.675781 Z M 514.160156 650.675781 " fill-opacity="1" fill-rule="evenodd"/><path fill="#3a3b53" d="M 514.160156 742.804688 C 514.964844 742.804688 515.769531 742 515.769531 741.195312 L 515.769531 732.75 C 515.769531 731.945312 514.964844 731.542969 514.160156 731.542969 L 302.542969 731.542969 C 301.738281 731.542969 300.933594 731.945312 300.933594 732.75 L 300.933594 741.195312 C 300.933594 742 301.738281 742.804688 302.542969 742.804688 Z M 514.160156 742.804688 " fill-opacity="1" fill-rule="evenodd"/><path fill="#1f3660" d="M 518.988281 660.332031 L 296.105469 660.332031 C 289.667969 660.332031 284.035156 665.5625 284.035156 672 L 284.035156 711.425781 C 284.035156 717.460938 289.667969 722.691406 296.105469 722.691406 L 518.988281 722.691406 C 525.425781 722.691406 531.058594 717.460938 531.058594 711.425781 L 531.058594 672 C 531.058594 665.5625 525.425781 660.332031 518.988281 660.332031 Z M 443.753906 672.402344 L 443.753906 711.023438 C 443.753906 713.035156 445.363281 714.644531 447.375 714.644531 L 457.433594 714.644531 C 459.445312 714.644531 461.054688 713.035156 461.054688 711.023438 L 461.054688 672.402344 C 461.054688 670.390625 459.445312 668.78125 457.433594 668.78125 L 447.375 668.78125 C 445.363281 668.78125 443.753906 670.390625 443.753906 672.402344 Z M 335.128906 702.574219 C 335.128906 704.585938 333.117188 706.597656 330.703125 706.597656 L 310.1875 706.597656 C 307.773438 706.597656 305.761719 704.585938 305.761719 702.574219 L 305.761719 680.847656 C 305.761719 678.4375 307.773438 676.425781 310.1875 676.425781 L 330.703125 676.425781 C 333.117188 676.425781 335.128906 678.4375 335.128906 680.847656 Z M 471.917969 672.402344 L 471.917969 711.023438 C 471.917969 713.035156 473.527344 714.644531 475.539062 714.644531 L 485.195312 714.644531 C 487.207031 714.644531 488.8125 713.035156 488.8125 711.023438 L 488.8125 672.402344 C 488.8125 670.390625 487.207031 668.78125 485.195312 668.78125 L 475.539062 668.78125 C 473.527344 668.78125 471.917969 670.390625 471.917969 672.402344 Z M 498.46875 672.402344 L 498.46875 711.023438 C 498.46875 713.035156 500.078125 714.644531 502.089844 714.644531 L 512.148438 714.644531 C 514.160156 714.644531 515.769531 713.035156 515.769531 711.023438 L 515.769531 672.402344 C 515.769531 670.390625 514.160156 668.78125 512.148438 668.78125 L 502.089844 668.78125 C 500.078125 668.78125 498.46875 670.390625 498.46875 672.402344 Z M 498.46875 672.402344 " fill-opacity="1" fill-rule="evenodd"/><path fill="#1f3660" d="M 518.988281 751.65625 L 296.105469 751.65625 C 289.667969 751.65625 284.035156 756.886719 284.035156 763.324219 L 284.035156 802.75 C 284.035156 808.785156 289.667969 814.015625 296.105469 814.015625 L 518.988281 814.015625 C 525.425781 814.015625 531.058594 808.785156 531.058594 802.75 L 531.058594 763.324219 C 531.058594 756.886719 525.425781 751.65625 518.988281 751.65625 Z M 335.128906 793.902344 C 335.128906 796.3125 333.117188 797.921875 330.703125 797.921875 L 310.1875 797.921875 C 307.773438 797.921875 305.761719 796.3125 305.761719 793.902344 L 305.761719 772.175781 C 305.761719 769.761719 307.773438 767.75 310.1875 767.75 L 330.703125 767.75 C 333.117188 767.75 335.128906 769.761719 335.128906 772.175781 Z M 471.917969 764.933594 L 471.917969 803.554688 C 471.917969 805.566406 473.527344 807.175781 475.539062 807.175781 L 485.195312 807.175781 C 487.207031 807.175781 488.8125 805.566406 488.8125 803.554688 L 488.8125 764.933594 C 488.8125 762.921875 487.207031 761.3125 485.195312 761.3125 L 475.539062 761.3125 C 473.527344 761.3125 471.917969 762.921875 471.917969 764.933594 Z M 443.753906 764.933594 L 443.753906 803.554688 C 443.753906 805.566406 445.363281 807.175781 447.375 807.175781 L 457.433594 807.175781 C 459.445312 807.175781 461.054688 805.566406 461.054688 803.554688 L 461.054688 764.933594 C 461.054688 762.921875 459.445312 761.3125 457.433594 761.3125 L 447.375 761.3125 C 445.363281 761.3125 443.753906 762.921875 443.753906 764.933594 Z M 498.46875 764.933594 L 498.46875 803.554688 C 498.46875 805.566406 500.078125 807.175781 502.089844 807.175781 L 512.148438 807.175781 C 514.160156 807.175781 515.769531 805.566406 515.769531 803.554688 L 515.769531 764.933594 C 515.769531 762.921875 514.160156 761.3125 512.148438 761.3125 L 502.089844 761.3125 C 500.078125 761.3125 498.46875 762.921875 498.46875 764.933594 Z M 498.46875 764.933594 " fill-opacity="1" fill-rule="evenodd"/><g clip-path="url(#a8d6ad6f1a)"><path fill="#1f3660" d="M 803.023438 567.796875 L 580.140625 567.796875 C 573.703125 567.796875 568.472656 573.027344 568.472656 579.464844 L 568.472656 618.894531 C 568.472656 624.925781 573.703125 630.15625 580.140625 630.15625 L 803.023438 630.15625 C 809.863281 630.15625 815.09375 624.925781 815.09375 618.894531 L 815.09375 579.464844 C 815.09375 573.027344 809.863281 567.796875 803.023438 567.796875 Z M 727.789062 583.488281 L 727.789062 616.882812 C 727.789062 618.894531 729.800781 620.90625 731.8125 620.90625 L 741.46875 620.90625 C 743.480469 620.90625 745.089844 618.894531 745.089844 616.882812 L 745.089844 583.488281 C 745.089844 581.476562 743.480469 579.867188 741.46875 579.867188 L 731.8125 579.867188 C 729.800781 579.867188 727.789062 581.476562 727.789062 583.488281 Z M 619.566406 610.042969 C 619.566406 612.054688 617.554688 614.066406 615.140625 614.066406 L 594.222656 614.066406 C 591.808594 614.066406 589.796875 612.054688 589.796875 610.042969 L 589.796875 588.316406 C 589.796875 585.902344 591.808594 583.890625 594.222656 583.890625 L 615.140625 583.890625 C 617.554688 583.890625 619.566406 585.902344 619.566406 588.316406 Z M 755.953125 583.488281 L 755.953125 616.882812 C 755.953125 618.894531 757.5625 620.90625 759.574219 620.90625 L 769.632812 620.90625 C 771.644531 620.90625 773.253906 618.894531 773.253906 616.882812 L 773.253906 583.488281 C 773.253906 581.476562 771.644531 579.867188 769.632812 579.867188 L 759.574219 579.867188 C 757.5625 579.867188 755.953125 581.476562 755.953125 583.488281 Z M 782.503906 583.488281 L 782.503906 616.882812 C 782.503906 618.894531 784.113281 620.90625 786.527344 620.90625 L 796.183594 620.90625 C 798.195312 620.90625 799.804688 618.894531 799.804688 616.882812 L 799.804688 583.488281 C 799.804688 581.476562 798.195312 579.867188 796.183594 579.867188 L 786.527344 579.867188 C 784.113281 579.867188 782.503906 581.476562 782.503906 583.488281 Z M 782.503906 583.488281 " fill-opacity="1" fill-rule="evenodd"/></g><path fill="#3a3b53" d="M 798.597656 650.675781 C 799.402344 650.675781 799.804688 650.273438 799.804688 649.46875 L 799.804688 641.019531 C 799.804688 640.214844 799.402344 639.410156 798.597656 639.410156 L 586.578125 639.410156 C 585.773438 639.410156 585.371094 640.214844 585.371094 641.019531 L 585.371094 649.46875 C 585.371094 650.273438 585.773438 650.675781 586.578125 650.675781 Z M 798.597656 650.675781 " fill-opacity="1" fill-rule="evenodd"/><path fill="#3a3b53" d="M 798.597656 742.804688 C 799.402344 742.804688 799.804688 742 799.804688 741.195312 L 799.804688 732.75 C 799.804688 731.945312 799.402344 731.542969 798.597656 731.542969 L 586.578125 731.542969 C 585.773438 731.542969 585.371094 731.945312 585.371094 732.75 L 585.371094 741.195312 C 585.371094 742 585.773438 742.804688 586.578125 742.804688 Z M 798.597656 742.804688 " fill-opacity="1" fill-rule="evenodd"/><g clip-path="url(#90650bccfc)"><path fill="#1f3660" d="M 803.023438 660.332031 L 580.140625 660.332031 C 573.703125 660.332031 568.472656 665.5625 568.472656 672 L 568.472656 711.425781 C 568.472656 717.460938 573.703125 722.691406 580.140625 722.691406 L 803.023438 722.691406 C 809.863281 722.691406 815.09375 717.460938 815.09375 711.425781 L 815.09375 672 C 815.09375 665.5625 809.863281 660.332031 803.023438 660.332031 Z M 727.789062 672.402344 L 727.789062 711.023438 C 727.789062 713.035156 729.800781 714.644531 731.8125 714.644531 L 741.46875 714.644531 C 743.480469 714.644531 745.089844 713.035156 745.089844 711.023438 L 745.089844 672.402344 C 745.089844 670.390625 743.480469 668.78125 741.46875 668.78125 L 731.8125 668.78125 C 729.800781 668.78125 727.789062 670.390625 727.789062 672.402344 Z M 619.566406 702.574219 C 619.566406 704.585938 617.554688 706.597656 615.140625 706.597656 L 594.222656 706.597656 C 591.808594 706.597656 589.796875 704.585938 589.796875 702.574219 L 589.796875 680.847656 C 589.796875 678.4375 591.808594 676.425781 594.222656 676.425781 L 615.140625 676.425781 C 617.554688 676.425781 619.566406 678.4375 619.566406 680.847656 Z M 755.953125 672.402344 L 755.953125 711.023438 C 755.953125 713.035156 757.5625 714.644531 759.574219 714.644531 L 769.632812 714.644531 C 771.644531 714.644531 773.253906 713.035156 773.253906 711.023438 L 773.253906 672.402344 C 773.253906 670.390625 771.644531 668.78125 769.632812 668.78125 L 759.574219 668.78125 C 757.5625 668.78125 755.953125 670.390625 755.953125 672.402344 Z M 782.503906 672.402344 L 782.503906 711.023438 C 782.503906 713.035156 784.113281 714.644531 786.527344 714.644531 L 796.183594 714.644531 C 798.195312 714.644531 799.804688 713.035156 799.804688 711.023438 L 799.804688 672.402344 C 799.804688 670.390625 798.195312 668.78125 796.183594 668.78125 L 786.527344 668.78125 C 784.113281 668.78125 782.503906 670.390625 782.503906 672.402344 Z M 782.503906 672.402344 " fill-opacity="1" fill-rule="evenodd"/></g><g clip-path="url(#903c006d78)"><path fill="#1f3660" d="M 803.023438 751.65625 L 580.140625 751.65625 C 573.703125 751.65625 568.472656 756.886719 568.472656 763.324219 L 568.472656 802.75 C 568.472656 808.785156 573.703125 814.015625 580.140625 814.015625 L 803.023438 814.015625 C 809.863281 814.015625 815.09375 808.785156 815.09375 802.75 L 815.09375 763.324219 C 815.09375 756.886719 809.863281 751.65625 803.023438 751.65625 Z M 619.566406 793.902344 C 619.566406 796.3125 617.554688 797.921875 615.140625 797.921875 L 594.222656 797.921875 C 591.808594 797.921875 589.796875 796.3125 589.796875 793.902344 L 589.796875 772.175781 C 589.796875 769.761719 591.808594 767.75 594.222656 767.75 L 615.140625 767.75 C 617.554688 767.75 619.566406 769.761719 619.566406 772.175781 Z M 755.953125 764.933594 L 755.953125 803.554688 C 755.953125 805.566406 757.5625 807.175781 759.574219 807.175781 L 769.632812 807.175781 C 771.644531 807.175781 773.253906 805.566406 773.253906 803.554688 L 773.253906 764.933594 C 773.253906 762.921875 771.644531 761.3125 769.632812 761.3125 L 759.574219 761.3125 C 757.5625 761.3125 755.953125 762.921875 755.953125 764.933594 Z M 727.789062 764.933594 L 727.789062 803.554688 C 727.789062 805.566406 729.800781 807.175781 731.8125 807.175781 L 741.46875 807.175781 C 743.480469 807.175781 745.089844 805.566406 745.089844 803.554688 L 745.089844 764.933594 C 745.089844 762.921875 743.480469 761.3125 741.46875 761.3125 L 731.8125 761.3125 C 729.800781 761.3125 727.789062 762.921875 727.789062 764.933594 Z M 782.503906 764.933594 L 782.503906 803.554688 C 782.503906 805.566406 784.113281 807.175781 786.527344 807.175781 L 796.183594 807.175781 C 798.195312 807.175781 799.804688 805.566406 799.804688 803.554688 L 799.804688 764.933594 C 799.804688 762.921875 798.195312 761.3125 796.183594 761.3125 L 786.527344 761.3125 C 784.113281 761.3125 782.503906 762.921875 782.503906 764.933594 Z M 782.503906 764.933594 " fill-opacity="1" fill-rule="evenodd"/></g><path fill="#3a3b53" d="M 457.03125 442.277344 C 457.433594 441.875 457.433594 441.472656 457.433594 441.472656 C 457.433594 440.667969 457.03125 440.265625 457.03125 439.460938 C 457.03125 437.046875 456.628906 435.035156 456.226562 432.621094 C 456.226562 431.816406 455.824219 430.609375 455.421875 429.402344 C 455.019531 427.792969 454.214844 425.78125 453.410156 424.171875 C 453.007812 422.964844 452.605469 422.160156 452.203125 420.953125 C 450.996094 418.941406 449.789062 417.332031 448.582031 415.320312 C 447.777344 414.113281 446.972656 412.90625 445.765625 412.101562 C 444.558594 410.492188 443.351562 408.882812 441.742188 407.675781 C 440.535156 406.871094 439.730469 406.066406 438.523438 405.261719 C 437.316406 404.457031 435.707031 403.652344 434.5 402.847656 C 433.292969 402.042969 432.085938 401.640625 430.882812 400.835938 C 430.078125 400.835938 429.675781 400.433594 429.273438 400.433594 L 429.273438 371.46875 C 429.273438 369.457031 427.664062 367.445312 425.25 367.445312 L 400.304688 367.445312 C 398.292969 367.445312 396.28125 369.457031 396.28125 371.46875 L 396.28125 400.03125 C 384.210938 404.859375 374.558594 415.320312 370.535156 427.792969 C 370.535156 428.195312 370.535156 428.195312 370.535156 428.597656 C 370.132812 429.402344 369.730469 430.609375 369.730469 431.414062 C 369.328125 432.21875 369.328125 432.621094 369.328125 433.425781 C 368.925781 434.632812 368.925781 436.242188 368.925781 437.851562 C 368.523438 439.058594 368.523438 439.863281 368.523438 440.667969 C 368.523438 441.070312 368.523438 441.070312 368.523438 441.472656 C 368.523438 442.277344 368.523438 442.679688 368.523438 443.484375 C 368.925781 445.496094 368.925781 447.910156 369.328125 449.917969 C 369.730469 451.125 370.132812 452.332031 370.132812 453.539062 C 370.9375 455.148438 371.339844 457.160156 372.144531 458.769531 C 372.546875 459.976562 372.949219 460.78125 373.753906 461.988281 C 374.558594 464 375.761719 465.609375 376.96875 467.621094 C 378.175781 468.828125 378.980469 469.632812 379.785156 470.839844 C 381.394531 472.449219 382.601562 473.65625 384.210938 475.265625 C 385.015625 476.070312 386.222656 476.875 387.429688 477.679688 C 388.636719 478.484375 389.84375 479.289062 391.050781 480.09375 C 392.660156 480.898438 393.867188 481.300781 395.074219 482.105469 C 395.476562 482.105469 395.878906 482.507812 396.28125 482.507812 L 396.28125 511.472656 C 396.28125 513.484375 398.292969 515.496094 400.304688 515.496094 L 425.25 515.496094 C 427.664062 515.496094 429.273438 513.484375 429.273438 511.472656 L 429.273438 482.910156 C 441.742188 478.082031 451.398438 467.621094 455.019531 455.148438 C 455.019531 454.746094 455.421875 454.746094 455.421875 454.34375 C 455.824219 453.539062 455.824219 452.332031 456.226562 451.125 C 456.226562 450.722656 456.226562 450.324219 456.628906 449.519531 C 456.628906 447.910156 457.03125 446.300781 457.03125 445.09375 C 457.03125 443.886719 457.03125 443.082031 457.03125 442.277344 Z M 457.03125 442.277344 " fill-opacity="1" fill-rule="evenodd"/></svg>